<?xml version="1.0" encoding="UTF-8" standalone="no"?>
<svg
   xmlns:dc="http://purl.org/dc/elements/1.1/"
   xmlns:cc="http://creativecommons.org/ns#"
   xmlns:rdf="http://www.w3.org/1999/02/22-rdf-syntax-ns#"
   xmlns:svg="http://www.w3.org/2000/svg"
   xmlns="http://www.w3.org/2000/svg"
   viewBox="0 0 377.94666 566.93335"
   height="566.93335"
   width="377.94666"
   xml:space="preserve"
   id="svg2"
   version="1.1"><metadata
     id="metadata8"><rdf:RDF><cc:Work
         rdf:about=""><dc:format>image/svg+xml</dc:format><dc:type
           rdf:resource="http://purl.org/dc/dcmitype/StillImage" /></cc:Work></rdf:RDF></metadata><defs
     id="defs6"><clipPath
       id="clipPath18"
       clipPathUnits="userSpaceOnUse"><path
         id="path16"
         d="M 0,425.2 H 283.46 V 0 H 0 Z" /></clipPath></defs><g
     transform="matrix(1.3333333,0,0,-1.3333333,0,566.93333)"
     id="g10"><g
       id="g12"><g
         clip-path="url(#clipPath18)"
         id="g14"><g
           transform="translate(29.6578,93.912)"
           id="g20"><path
             id="path22"
             style="fill:#ffffff;fill-opacity:1;fill-rule:nonzero;stroke:none"
             d="m 0,0 v 4.259 h 11.623 c 5.228,0 7.842,1.752 7.842,5.259 0,2.252 -1.38,4.041 -4.141,5.37 L 6.09,19.259 C 2.029,21.182 0,24.045 0,27.851 c 0,6.06 3.815,9.09 11.447,9.09 h 11.226 v -4.257 h -9.899 c -1.77,0 -3.06,-0.075 -3.871,-0.223 -0.812,-0.148 -1.65,-0.575 -2.516,-1.278 -0.866,-0.706 -1.3,-1.836 -1.3,-3.393 0,-1.187 0.277,-2.133 0.83,-2.837 0.553,-0.705 1.548,-1.391 2.986,-2.058 l 9.734,-4.479 C 22.581,16.572 24.553,13.623 24.553,9.567 24.553,3.188 20.701,0 12.999,0 Z" /></g><g
           transform="translate(63.9996,93.912)"
           id="g24"><path
             id="path26"
             style="fill:#ffffff;fill-opacity:1;fill-rule:nonzero;stroke:none"
             d="m 0,0 h -4.922 v 23.725 c 0,4.349 1.124,7.751 3.374,10.203 2.248,2.452 5.234,3.677 8.958,3.677 3.502,0 6.443,-1.152 8.821,-3.457 2.378,-2.303 3.567,-5.152 3.567,-8.543 0,-3.502 -1.106,-6.341 -3.318,-8.516 -2.212,-2.176 -5.088,-3.263 -8.627,-3.263 H 1.88 v 4.258 h 5.309 c 2.286,0 4.11,0.664 5.475,1.991 1.363,1.327 2.046,3.133 2.046,5.419 0,2.213 -0.701,4.037 -2.102,5.476 -1.401,1.437 -3.189,2.156 -5.363,2.156 -2.25,0 -4.02,-0.82 -5.309,-2.461 C 0.644,29.024 0,26.767 0,23.891 Z" /></g><path
           id="path28"
           style="fill:#ffffff;fill-opacity:1;fill-rule:nonzero;stroke:none"
           d="m 94.857,93.912 h -4.922 v 36.941 h 4.922 z" /><g
           transform="translate(127.3737,93.912)"
           id="g30"><path
             id="path32"
             style="fill:#ffffff;fill-opacity:1;fill-rule:nonzero;stroke:none"
             d="m 0,0 h -4.922 v 15.928 h -14.047 v 4.258 h 14.047 v 2.377 c 0,2.138 -0.101,3.687 -0.304,4.646 -0.203,0.958 -0.839,2.202 -1.908,3.732 -1.069,1.53 -2.913,2.296 -5.53,2.296 -5.419,0 -8.129,-3.411 -8.129,-10.231 V 0 h -4.922 v 22.785 c 0,4.681 1.134,8.341 3.401,10.977 2.267,2.635 5.41,3.954 9.429,3.954 2.285,0 4.359,-0.488 6.221,-1.465 1.861,-0.978 3.281,-2.222 4.259,-3.733 0.976,-1.513 1.621,-2.996 1.935,-4.452 C -0.157,26.608 0,24.757 0,22.508 Z" /></g><g
           transform="translate(149.6046,114.5956)"
           id="g34"><path
             id="path36"
             style="fill:#ffffff;fill-opacity:1;fill-rule:nonzero;stroke:none"
             d="m 0,0 h 19.41 v -1.604 c 0,-2.987 -0.535,-5.955 -1.603,-8.904 -1.071,-2.95 -3.2,-5.512 -6.388,-7.687 -3.19,-2.175 -6.774,-3.263 -10.755,-3.263 -5.421,0 -9.974,1.861 -13.661,5.586 -3.687,3.724 -5.529,8.332 -5.529,13.825 0,5.346 1.842,9.844 5.529,13.494 3.687,3.65 8.259,5.475 13.716,5.475 5.64,0 10.469,-1.973 14.488,-5.918 L 11.724,7.741 c -3.245,3.134 -6.858,4.701 -10.839,4.701 -4.093,0 -7.504,-1.364 -10.231,-4.091 -2.729,-2.729 -4.092,-6.14 -4.092,-10.232 0,-4.313 1.344,-7.908 4.036,-10.783 2.691,-2.875 6.084,-4.315 10.175,-4.315 3.797,0 6.987,1.2 9.568,3.595 2.58,2.397 3.871,5.439 3.871,9.125 L 0,-4.259 Z" /></g><g
           transform="translate(189.42,114.5956)"
           id="g38"><path
             id="path40"
             style="fill:#ffffff;fill-opacity:1;fill-rule:nonzero;stroke:none"
             d="m 0,0 h 19.411 v -1.604 c 0,-2.987 -0.535,-5.955 -1.604,-8.904 -1.07,-2.95 -3.199,-5.512 -6.387,-7.687 -3.19,-2.175 -6.774,-3.263 -10.756,-3.263 -5.42,0 -9.974,1.861 -13.66,5.586 -3.687,3.724 -5.529,8.332 -5.529,13.825 0,5.346 1.842,9.844 5.529,13.494 3.686,3.65 8.259,5.475 13.715,5.475 5.641,0 10.469,-1.973 14.489,-5.918 L 11.724,7.741 c -3.245,3.134 -6.858,4.701 -10.839,4.701 -4.092,0 -7.503,-1.364 -10.231,-4.091 -2.728,-2.729 -4.092,-6.14 -4.092,-10.232 0,-4.313 1.345,-7.908 4.037,-10.783 2.69,-2.875 6.083,-4.315 10.175,-4.315 3.797,0 6.987,1.2 9.567,3.595 2.58,2.397 3.872,5.439 3.872,9.125 L 0,-4.259 Z" /></g><path
           id="path42"
           style="fill:#ffffff;fill-opacity:1;fill-rule:nonzero;stroke:none"
           d="m 218.729,93.912 h -4.921 v 36.941 h 4.921 z" /><g
           transform="translate(251.2452,93.912)"
           id="g44"><path
             id="path46"
             style="fill:#ffffff;fill-opacity:1;fill-rule:nonzero;stroke:none"
             d="m 0,0 h -4.922 v 15.928 h -14.047 v 4.258 h 14.047 v 2.377 c 0,2.138 -0.101,3.687 -0.304,4.646 -0.203,0.958 -0.839,2.202 -1.908,3.732 -1.069,1.53 -2.913,2.296 -5.53,2.296 -5.419,0 -8.129,-3.411 -8.129,-10.231 V 0 h -4.922 v 22.785 c 0,4.681 1.134,8.341 3.401,10.977 2.267,2.635 5.41,3.954 9.429,3.954 2.285,0 4.359,-0.488 6.221,-1.465 1.861,-0.978 3.281,-2.222 4.259,-3.733 0.976,-1.513 1.622,-2.996 1.935,-4.452 C -0.157,26.608 0,24.757 0,22.508 Z" /></g><g
           transform="translate(114.8136,33.8984)"
           id="g48"><path
             id="path50"
             style="fill:#ffffff;fill-opacity:1;fill-rule:nonzero;stroke:none"
             d="m 0,0 v -6.263 h -29.257 c -4.282,0 -6.422,1.373 -6.422,4.123 0,1.375 0.978,2.961 2.932,4.758 l 18.158,15.857 c 2.748,2.386 4.691,4.495 5.828,6.323 1.136,1.831 1.704,3.807 1.704,5.929 0,2.971 -1.03,5.489 -3.091,7.557 -2.062,2.07 -4.574,3.105 -7.533,3.105 -3.172,0 -5.815,-1.005 -7.929,-3.014 -2.115,-2.01 -3.171,-4.572 -3.171,-7.69 0,-1.586 0.329,-3.092 0.991,-4.52 0.661,-1.427 1.532,-2.591 2.617,-3.488 1.082,-0.9 2.166,-1.521 3.25,-1.864 1.083,-0.344 2.444,-0.515 4.083,-0.515 l -5.232,-5.153 c -4.123,1.16 -7.256,3.071 -9.395,5.734 -2.141,2.662 -3.212,5.972 -3.212,9.925 0,4.8 1.744,8.806 5.233,12.022 3.488,3.217 7.849,4.825 13.082,4.825 4.916,0 9.039,-1.585 12.368,-4.753 C -1.666,39.729 0,35.795 0,31.095 0,24.916 -3.444,19.105 -10.331,13.664 L -25.026,1.883 c -0.76,-0.574 -1.139,-1.021 -1.139,-1.333 0,-0.367 0.715,-0.55 2.147,-0.55 z" /></g><g
           transform="translate(138.9542,27.6611)"
           id="g52"><path
             id="path54"
             style="fill:#ffffff;fill-opacity:1;fill-rule:nonzero;stroke:none"
             d="M 0,0 -7.967,-0.025 7.89,24.315 c 1.955,3.023 3.184,5.169 3.687,6.444 0.502,1.273 0.753,2.864 0.753,4.774 0,3.395 -1.163,6.257 -3.488,8.592 -2.326,2.334 -5.233,3.501 -8.721,3.501 -3.437,0 -6.344,-1.167 -8.722,-3.501 -2.379,-2.334 -3.568,-5.223 -3.568,-8.67 0,-3.288 1.11,-6.126 3.33,-8.513 2.22,-2.385 4.916,-3.578 8.087,-3.578 1.215,0 2.062,0.053 2.537,0.159 0.476,0.105 1.401,0.369 2.776,0.792 L 0.675,17.734 h -1.347 c -5.233,0 -9.594,1.666 -13.083,4.995 -3.489,3.331 -5.232,7.534 -5.232,12.607 0,5.285 1.823,9.699 5.47,13.24 3.648,3.541 8.246,5.313 13.796,5.313 5.284,0 9.739,-1.756 13.36,-5.27 3.62,-3.513 5.43,-7.78 5.43,-12.799 0,-2.43 -0.292,-4.504 -0.877,-6.221 -0.585,-1.716 -1.752,-3.923 -3.505,-6.618 z" /></g><g
           transform="translate(180.9376,75.9198)"
           id="g56"><path
             id="path58"
             style="fill:#ffffff;fill-opacity:1;fill-rule:nonzero;stroke:none"
             d="m 0,0 c -2.378,0 -4.375,-0.779 -5.986,-2.338 -1.614,-1.559 -2.418,-3.503 -2.418,-5.828 0,-2.273 0.832,-4.215 2.497,-5.826 1.665,-1.613 3.66,-2.42 5.986,-2.42 2.272,0 4.189,0.807 5.748,2.42 1.559,1.611 2.339,3.579 2.339,5.905 0,2.326 -0.767,4.255 -2.3,5.788 C 4.333,-0.767 2.379,0 0,0 m 0.039,-21.724 c -3.161,0 -5.821,-1.001 -7.98,-3.001 -2.16,-2.002 -3.238,-4.476 -3.238,-7.424 0,-3.002 1.052,-5.53 3.159,-7.584 2.107,-2.055 4.741,-3.08 7.901,-3.08 3.106,0 5.74,1.025 7.9,3.08 2.159,2.054 3.24,4.554 3.24,7.504 0,2.948 -1.067,5.436 -3.2,7.464 -2.134,2.027 -4.728,3.041 -7.782,3.041 m 7.651,3.33 c 3.331,-1.317 5.894,-3.189 7.691,-5.615 1.797,-2.426 2.695,-5.299 2.695,-8.619 0,-4.64 -1.743,-8.567 -5.232,-11.784 -3.489,-3.215 -7.77,-4.823 -12.844,-4.823 -5.074,0 -9.343,1.568 -12.805,4.711 -3.463,3.139 -5.193,7.005 -5.193,11.598 0,6.966 3.489,11.822 10.466,14.568 -4.811,2.427 -7.215,6.069 -7.215,10.925 0,3.801 1.388,6.927 4.162,9.381 2.775,2.454 6.276,3.682 10.505,3.682 4.282,0 7.81,-1.229 10.586,-3.687 2.774,-2.457 4.161,-5.537 4.161,-9.236 0,-4.969 -2.325,-8.67 -6.977,-11.101" /></g><g
           transform="translate(53.8234,309.1083)"
           id="g60"><path
             id="path62"
             style="fill:#2e58a6;fill-opacity:1;fill-rule:nonzero;stroke:none"
             d="m 0,0 c -0.114,19.841 5.337,38.004 17.019,54.056 12.198,16.76 28.004,28.615 48.23,34.251 25.388,7.074 49.25,4.398 72.133,-9.288 15.272,-9.133 26.224,-21.645 34.297,-37.187 6.832,-13.156 10.052,-27.035 9.346,-41.833 -8.274,0.015 -16.548,0.03 -24.823,0.045 -0.602,23.845 -11.451,42.141 -31.082,54.989 -13.751,9 -29.131,11.938 -45.567,9.186 C 65.919,61.937 54.413,55.684 44.789,46.093 36.607,37.939 30.749,28.338 27.514,16.974 25.908,11.333 25.842,5.485 23.963,-0.022 15.975,-0.015 7.988,-0.007 0,0" /></g><g
           transform="translate(53.8234,300.454)"
           id="g64"><path
             id="path66"
             style="fill:#4fa0ca;fill-opacity:1;fill-rule:nonzero;stroke:none"
             d="m 0,0 c 7.988,-0.007 15.975,-0.015 23.963,-0.021 -2.021,-2.709 -1.639,-4.765 1.599,-6.128 1.156,-0.486 2.302,-1.04 3.355,-1.714 2.998,-1.92 4.861,-4.822 3.094,-8.059 -2.506,-4.593 -0.99,-6.184 3.468,-7.365 1.778,-0.471 4.814,-2.129 2.792,-4.767 -3.211,-4.188 -1.62,-5.618 2.578,-6.925 1.668,-0.519 5.294,-0.835 3.517,-4.205 -2.022,-3.835 0.247,-4.383 3.036,-4.869 2.649,-0.461 5.138,-1.323 5.197,-4.483 0.049,-2.599 1.215,-3.074 3.505,-3.29 2.608,-0.245 5.666,-0.644 6.085,-4.112 0.437,-3.61 3.151,-4.495 5.857,-5.285 2.419,-0.706 4.99,-0.867 7.445,-1.468 12.671,-3.102 25.237,-1.054 37.802,0.731 0.889,0.126 2.447,0.889 2.423,1.273 -0.342,5.249 5.274,5.139 6.719,7.428 2.624,4.159 5.682,4.786 9.537,5.537 1.531,0.298 3.465,1.481 2.535,3.279 -3.168,6.121 0.962,5.863 4.923,6.186 2.765,0.226 4.525,1.293 1.896,4.148 -2.629,2.854 -0.889,4.541 1.653,5.842 1.103,0.564 2.473,0.581 3.627,1.07 2.852,1.206 4.563,2.623 2.007,5.988 -2.594,3.414 -1.624,6.839 2.206,9.379 1.452,0.963 3.162,1.528 4.653,2.442 2.741,1.683 4.507,3.719 1.732,6.841 -0.661,0.744 -1.092,1.564 -1.002,2.592 8.275,-0.016 16.549,-0.031 24.823,-0.046 0.745,-0.589 1.58,-1.093 2.22,-1.78 5.222,-5.608 4.675,-8.173 -2.341,-11.174 -1.016,-0.435 -2.079,-0.778 -3.056,-1.286 -2.815,-1.465 -3.075,-3.053 -0.697,-5.457 3.88,-3.922 2.664,-8.059 -2.642,-9.788 -1.051,-0.342 -2.182,-0.447 -3.216,-0.824 -1.366,-0.497 -2.868,-1.212 -3.174,-2.675 -0.412,-1.973 1.655,-2.046 2.797,-2.62 3.41,-1.714 2.769,-3.589 0.672,-5.974 -2.256,-2.567 -5.331,-3.31 -8.3,-4.439 -2.527,-0.96 -4.7,-2.182 -1.065,-4.738 2.066,-1.453 1.403,-3.061 -0.384,-4.16 -1.61,-0.992 -3.35,-1.987 -5.163,-2.385 -2.794,-0.614 -5.879,-0.205 -3.011,-4.726 1.369,-2.158 -1.423,-2.815 -3.005,-3.001 -3.557,-0.416 -6.398,-0.805 -6.253,-5.725 0.082,-2.779 -2.809,-3.915 -5.591,-3.949 -2.831,-0.034 -5.325,-0.154 -5.993,-3.905 -0.367,-2.059 -2.695,-2.872 -4.598,-2.693 -3.492,0.327 -5.857,-1.155 -8.397,-3.332 -3.099,-2.656 -7.439,-2.722 -11.236,-3.269 -11.19,-1.61 -22.67,-2.431 -33.646,0.138 -6.428,1.504 -13.843,2.397 -18.722,8.316 -0.867,1.052 -2.81,1.237 -4.276,1.767 -2.911,1.051 -5.936,1.153 -6.78,5.627 -0.579,3.07 -5.01,2.767 -7.928,2.999 -2.725,0.217 -4.23,0.536 -3.353,3.906 0.799,3.066 -1.671,3.325 -3.984,3.94 -2.579,0.686 -7.912,-0.173 -4.355,5.614 0.599,0.974 -0.323,1.618 -1.405,1.947 -2.121,0.643 -4.263,1.296 -6.268,2.222 -4.008,1.849 -4.133,3.042 -1.043,6.255 2.589,2.691 -0.396,3.355 -1.793,3.781 -2.865,0.876 -5.77,1.348 -8.167,3.456 -2.95,2.595 -2.462,4.537 0.782,6.154 0.975,0.486 2.372,0.503 2.439,1.879 0.069,1.42 -1.426,1.536 -2.327,2.06 -2.192,1.272 -4.629,2.078 -6.469,3.994 -3.208,3.341 -2.839,6.154 1.316,8.283 1.337,0.686 3.641,0.473 3.572,2.466 -0.06,1.677 -2.286,1.998 -3.498,2.973 -0.956,0.77 -2.357,0.973 -3.355,1.706 -1.656,1.217 -4.395,1.388 -4.143,4.551 C -4.558,-0.688 -1.686,-1.17 0,0" /></g><g
           transform="translate(32.3756,92.1943)"
           id="g68"><path
             id="path70"
             style="fill:#4fa0ca;fill-opacity:1;fill-rule:nonzero;stroke:none"
             d="m 0,0 v 4.319 h 11.792 c 5.303,0 7.955,1.779 7.955,5.335 0,2.285 -1.4,4.101 -4.202,5.45 L 6.178,19.537 C 2.059,21.487 0,24.392 0,28.253 c 0,6.148 3.871,9.223 11.613,9.223 h 11.389 v -4.32 H 12.959 C 11.164,33.156 9.854,33.081 9.032,32.93 8.209,32.779 7.358,32.347 6.479,31.633 5.601,30.918 5.161,29.771 5.161,28.191 c 0,-1.205 0.28,-2.163 0.841,-2.878 0.561,-0.714 1.571,-1.41 3.03,-2.087 l 9.874,-4.543 C 22.907,16.812 24.909,13.82 24.909,9.706 24.909,3.234 21.001,0 13.188,0 Z" /></g><g
           transform="translate(67.2145,92.1943)"
           id="g72"><path
             id="path74"
             style="fill:#4fa0ca;fill-opacity:1;fill-rule:nonzero;stroke:none"
             d="m 0,0 h -4.993 v 24.067 c 0,4.413 1.14,7.864 3.423,10.352 2.28,2.487 5.31,3.73 9.088,3.73 3.552,0 6.535,-1.169 8.948,-3.506 2.412,-2.338 3.619,-5.227 3.619,-8.667 0,-3.554 -1.122,-6.434 -3.366,-8.64 -2.244,-2.208 -5.162,-3.311 -8.753,-3.311 H 1.907 v 4.321 h 5.386 c 2.319,0 4.17,0.673 5.555,2.019 1.382,1.347 2.075,3.179 2.075,5.498 0,2.244 -0.711,4.095 -2.131,5.554 -1.422,1.459 -3.236,2.188 -5.442,2.188 -2.282,0 -4.078,-0.833 -5.386,-2.497 C 0.654,29.443 0,27.153 0,24.236 Z" /></g><path
           id="path76"
           style="fill:#4fa0ca;fill-opacity:1;fill-rule:nonzero;stroke:none"
           d="m 98.519,92.194 h -4.993 v 37.476 h 4.993 z" /><g
           transform="translate(131.5065,92.1943)"
           id="g78"><path
             id="path80"
             style="fill:#4fa0ca;fill-opacity:1;fill-rule:nonzero;stroke:none"
             d="m 0,0 h -4.993 v 16.157 h -14.25 v 4.32 h 14.25 v 2.413 c 0,2.168 -0.104,3.739 -0.309,4.713 -0.206,0.971 -0.851,2.234 -1.935,3.786 -1.085,1.551 -2.955,2.329 -5.611,2.329 -5.498,0 -8.246,-3.461 -8.246,-10.379 V 0 h -4.993 v 23.114 c 0,4.749 1.15,8.462 3.449,11.136 2.301,2.674 5.489,4.012 9.566,4.012 2.319,0 4.422,-0.496 6.311,-1.487 1.888,-0.991 3.329,-2.254 4.321,-3.788 0.99,-1.533 1.645,-3.038 1.963,-4.515 C -0.16,26.993 0,25.114 0,22.834 Z" /></g><g
           transform="translate(154.0587,113.1767)"
           id="g82"><path
             id="path84"
             style="fill:#4fa0ca;fill-opacity:1;fill-rule:nonzero;stroke:none"
             d="m 0,0 h 19.691 v -1.628 c 0,-3.029 -0.542,-6.04 -1.627,-9.031 -1.085,-2.993 -3.245,-5.592 -6.479,-7.8 -3.235,-2.206 -6.872,-3.31 -10.911,-3.31 -5.499,0 -10.118,1.889 -13.859,5.667 -3.74,3.778 -5.609,8.453 -5.609,14.026 0,5.423 1.869,9.986 5.609,13.689 3.741,3.702 8.379,5.554 13.914,5.554 5.723,0 10.622,-2.001 14.699,-6.003 l -3.534,-3.31 c -3.292,3.178 -6.957,4.769 -10.997,4.769 -4.151,0 -7.611,-1.385 -10.378,-4.152 -2.769,-2.768 -4.152,-6.228 -4.152,-10.379 0,-4.376 1.365,-8.023 4.095,-10.94 2.73,-2.917 6.172,-4.376 10.323,-4.376 3.853,0 7.088,1.216 9.706,3.647 2.617,2.431 3.927,5.516 3.927,9.257 H 0 Z" /></g><g
           transform="translate(194.4513,113.1767)"
           id="g86"><path
             id="path88"
             style="fill:#4fa0ca;fill-opacity:1;fill-rule:nonzero;stroke:none"
             d="m 0,0 h 19.691 v -1.628 c 0,-3.029 -0.543,-6.04 -1.627,-9.031 -1.085,-2.993 -3.245,-5.592 -6.479,-7.8 -3.236,-2.206 -6.873,-3.31 -10.912,-3.31 -5.498,0 -10.117,1.889 -13.858,5.667 -3.74,3.778 -5.609,8.453 -5.609,14.026 0,5.423 1.869,9.986 5.609,13.689 3.741,3.702 8.378,5.554 13.914,5.554 5.722,0 10.622,-2.001 14.699,-6.003 l -3.534,-3.31 c -3.292,3.178 -6.957,4.769 -10.997,4.769 -4.151,0 -7.612,-1.385 -10.378,-4.152 -2.769,-2.768 -4.152,-6.228 -4.152,-10.379 0,-4.376 1.364,-8.023 4.095,-10.94 2.73,-2.917 6.172,-4.376 10.323,-4.376 3.852,0 7.087,1.216 9.705,3.647 2.618,2.431 3.928,5.516 3.928,9.257 H 0 Z" /></g><path
           id="path90"
           style="fill:#4fa0ca;fill-opacity:1;fill-rule:nonzero;stroke:none"
           d="m 224.185,92.194 h -4.993 v 37.476 h 4.993 z" /><g
           transform="translate(257.171,92.1943)"
           id="g92"><path
             id="path94"
             style="fill:#4fa0ca;fill-opacity:1;fill-rule:nonzero;stroke:none"
             d="m 0,0 h -4.993 v 16.157 h -14.25 v 4.32 h 14.25 v 2.413 c 0,2.168 -0.103,3.739 -0.309,4.713 -0.206,0.971 -0.85,2.234 -1.935,3.786 -1.084,1.551 -2.954,2.329 -5.611,2.329 -5.497,0 -8.246,-3.461 -8.246,-10.379 V 0 h -4.993 v 23.114 c 0,4.749 1.15,8.462 3.449,11.136 2.301,2.674 5.49,4.012 9.567,4.012 2.318,0 4.422,-0.496 6.311,-1.487 1.888,-0.991 3.328,-2.254 4.32,-3.788 0.991,-1.533 1.645,-3.038 1.963,-4.515 C -0.159,26.993 0,25.114 0,22.834 Z" /></g><g
           transform="translate(63.1041,189.0878)"
           id="g96"><path
             id="path98"
             style="fill:#2e58a6;fill-opacity:1;fill-rule:nonzero;stroke:none"
             d="m 0,0 c -5.315,0 -9.86,-1.958 -13.63,-5.873 -3.772,-3.917 -5.657,-8.603 -5.657,-14.06 0,-5.659 1.872,-10.459 5.619,-14.4 3.746,-3.942 8.302,-5.911 13.668,-5.911 5.213,0 9.719,1.969 13.516,5.911 3.796,3.941 5.694,8.64 5.694,14.098 0,5.659 -1.859,10.445 -5.58,14.362 C 9.909,-1.958 5.365,0 0,0 m -0.152,6.15 c 7.39,0 13.63,-2.539 18.717,-7.62 5.087,-5.08 7.631,-11.361 7.631,-18.842 0,-7.077 -2.581,-13.194 -7.745,-18.349 C 13.288,-43.817 7.138,-46.394 0,-46.394 c -7.29,0 -13.491,2.551 -18.604,7.657 -5.113,5.105 -7.669,11.297 -7.669,18.576 0,7.28 2.544,13.485 7.631,18.615 5.087,5.13 11.25,7.696 18.49,7.696" /></g><g
           transform="translate(93.4,143.6044)"
           id="g100"><path
             id="path102"
             style="fill:#2e58a6;fill-opacity:1;fill-rule:nonzero;stroke:none"
             d="m 0,0 v 5.846 h 15.96 c 7.178,0 10.768,2.407 10.768,7.222 0,3.091 -1.895,5.548 -5.687,7.372 L 8.362,26.443 C 2.787,29.083 0,33.015 0,38.24 0,46.562 5.239,50.723 15.717,50.723 H 31.132 V 44.875 H 17.541 c -2.431,0 -4.203,-0.102 -5.316,-0.306 C 11.11,44.366 9.959,43.78 8.77,42.813 7.58,41.845 6.986,40.294 6.986,38.156 c 0,-1.631 0.379,-2.927 1.139,-3.894 0.759,-0.968 2.126,-1.91 4.1,-2.825 L 25.589,25.286 C 31.005,22.753 33.714,18.704 33.714,13.137 33.714,4.377 28.424,0 17.848,0 Z" /></g><g
           transform="translate(162.9532,149.6025)"
           id="g104"><path
             id="path106"
             style="fill:#2e58a6;fill-opacity:1;fill-rule:nonzero;stroke:none"
             d="m 0,0 v -5.998 h -2.05 c -5.367,0 -9.34,0.316 -11.921,0.95 -2.582,0.634 -5.315,2.053 -8.201,4.259 -2.885,2.205 -5.189,5.083 -6.91,8.632 -1.722,3.548 -2.582,7.401 -2.582,11.557 0,7.15 2.506,13.159 7.518,18.025 5.011,4.866 11.238,7.3 18.679,7.3 H 0 v -5.998 h -3.721 c -6.176,0 -11.213,-1.81 -15.11,-5.423 -3.898,-3.617 -5.847,-8.302 -5.847,-14.055 0,-3.412 0.836,-6.633 2.506,-9.663 1.671,-3.029 3.618,-5.205 5.847,-6.53 2.227,-1.325 4.302,-2.165 6.226,-2.521 C -8.175,0.178 -5.341,0 -1.594,0 Z" /></g><g
           transform="translate(204.1837,143.6044)"
           id="g108"><path
             id="path110"
             style="fill:#2e58a6;fill-opacity:1;fill-rule:nonzero;stroke:none"
             d="m 0,0 h -6.758 v 21.868 h -19.287 v 5.848 h 19.287 v 3.264 c 0,2.936 -0.139,5.062 -0.418,6.378 -0.278,1.317 -1.152,3.025 -2.619,5.125 -1.469,2.1 -4,3.153 -7.593,3.153 -7.442,0 -11.162,-4.684 -11.162,-14.048 V 0 h -6.759 v 31.284 c 0,6.429 1.557,11.452 4.67,15.072 3.114,3.619 7.429,5.429 12.947,5.429 3.138,0 5.986,-0.672 8.543,-2.011 2.555,-1.342 4.504,-3.051 5.846,-5.126 1.34,-2.076 2.227,-4.114 2.657,-6.113 C -0.216,36.536 0,33.992 0,30.904 Z" /></g><g
           transform="translate(218.6105,143.6044)"
           id="g112"><path
             id="path114"
             style="fill:#2e58a6;fill-opacity:1;fill-rule:nonzero;stroke:none"
             d="m 0,0 h -6.758 v 33.41 c 0,5.871 1.43,10.441 4.289,13.706 2.861,3.265 6.898,4.898 12.113,4.898 4.454,0 8.225,-1.365 11.313,-4.089 3.087,-2.726 4.632,-6.057 4.632,-9.993 0,-4.998 -2.506,-8.936 -7.517,-11.811 3.138,-1.118 5.315,-2.705 6.53,-4.761 1.214,-2.055 1.822,-5.266 1.822,-9.631 V 0 h -6.758 v 9.752 c 0,4.37 -0.645,7.557 -1.937,9.562 -1.291,2.007 -4.061,3.01 -8.314,3.01 H 2.658 v 5.847 h 4.859 c 3.493,0 6.213,0.781 8.163,2.343 1.948,1.562 2.924,3.755 2.924,6.578 0,2.521 -0.836,4.613 -2.506,6.276 -1.671,1.664 -3.773,2.495 -6.303,2.495 -1.822,0 -3.443,-0.405 -4.859,-1.215 C 3.518,43.838 2.341,42.598 1.404,40.927 0.468,39.258 0,36.346 0,32.195 Z" /></g><g
           transform="translate(118.7643,31.3114)"
           id="g116"><path
             id="path118"
             style="fill:#2e58a6;fill-opacity:1;fill-rule:nonzero;stroke:none"
             d="m 0,0 v -6.354 h -29.68 c -4.344,0 -6.516,1.394 -6.516,4.183 0,1.395 0.992,3.004 2.975,4.827 L -14.8,18.742 c 2.788,2.421 4.758,4.56 5.912,6.415 1.153,1.857 1.729,3.863 1.729,6.014 0,3.015 -1.045,5.569 -3.136,7.668 -2.092,2.099 -4.64,3.148 -7.642,3.148 -3.218,0 -5.899,-1.019 -8.043,-3.056 -2.146,-2.039 -3.218,-4.639 -3.218,-7.802 0,-1.609 0.334,-3.138 1.006,-4.585 0.67,-1.448 1.554,-2.629 2.654,-3.539 1.099,-0.913 2.198,-1.543 3.298,-1.891 1.098,-0.349 2.479,-0.523 4.142,-0.523 l -5.308,-5.228 c -4.183,1.178 -7.361,3.116 -9.532,5.818 -2.171,2.701 -3.258,6.058 -3.258,10.069 0,4.868 1.77,8.934 5.31,12.196 3.538,3.263 7.962,4.895 13.271,4.895 4.987,0 9.169,-1.608 12.547,-4.822 C -1.689,40.305 0,36.313 0,31.545 0,25.276 -3.494,19.382 -10.48,13.862 L -25.388,1.91 C -26.159,1.327 -26.543,0.875 -26.543,0.558 -26.543,0.186 -25.818,0 -24.365,0 Z" /></g><g
           transform="translate(143.254,24.9833)"
           id="g120"><path
             id="path122"
             style="fill:#2e58a6;fill-opacity:1;fill-rule:nonzero;stroke:none"
             d="M 0,0 -8.082,-0.025 8.005,24.668 c 1.983,3.066 3.229,5.243 3.74,6.537 0.509,1.291 0.765,2.905 0.765,4.843 0,3.443 -1.181,6.348 -3.539,8.716 -2.361,2.368 -5.309,3.551 -8.848,3.551 -3.486,0 -6.435,-1.183 -8.848,-3.551 -2.413,-2.368 -3.62,-5.298 -3.62,-8.795 0,-3.335 1.126,-6.215 3.379,-8.636 2.252,-2.421 4.987,-3.63 8.204,-3.63 1.233,0 2.091,0.053 2.574,0.161 0.483,0.107 1.419,0.373 2.815,0.804 L 0.686,17.992 h -1.368 c -5.308,0 -9.733,1.69 -13.272,5.067 -3.539,3.378 -5.308,7.642 -5.308,12.789 0,5.362 1.85,9.839 5.55,13.432 3.7,3.592 8.365,5.389 13.996,5.389 5.361,0 9.879,-1.781 13.553,-5.346 3.672,-3.563 5.51,-7.892 5.51,-12.984 0,-2.465 -0.297,-4.568 -0.891,-6.312 -0.593,-1.741 -1.777,-3.979 -3.557,-6.713 z" /></g><g
           transform="translate(185.8458,73.9413)"
           id="g124"><path
             id="path126"
             style="fill:#2e58a6;fill-opacity:1;fill-rule:nonzero;stroke:none"
             d="m 0,0 c -2.413,0 -4.438,-0.791 -6.073,-2.372 -1.636,-1.582 -2.452,-3.553 -2.452,-5.913 0,-2.306 0.843,-4.276 2.533,-5.91 1.688,-1.637 3.712,-2.454 6.072,-2.454 2.305,0 4.25,0.817 5.831,2.454 1.582,1.634 2.373,3.632 2.373,5.991 0,2.359 -0.777,4.316 -2.333,5.872 C 4.396,-0.778 2.413,0 0,0 m 0.04,-22.039 c -3.208,0 -5.906,-1.015 -8.097,-3.044 -2.19,-2.03 -3.284,-4.542 -3.284,-7.532 0,-3.046 1.068,-5.61 3.205,-7.694 2.137,-2.084 4.809,-3.125 8.015,-3.125 3.151,0 5.823,1.041 8.015,3.125 2.19,2.084 3.286,4.621 3.286,7.613 0,2.991 -1.082,5.514 -3.246,7.573 -2.164,2.055 -4.796,3.084 -7.894,3.084 m 7.762,3.379 c 3.378,-1.337 5.978,-3.236 7.802,-5.696 1.822,-2.461 2.734,-5.376 2.734,-8.744 0,-4.708 -1.769,-8.692 -5.308,-11.956 -3.54,-3.26 -7.883,-4.892 -13.03,-4.892 -5.147,0 -9.479,1.592 -12.99,4.778 -3.513,3.186 -5.269,7.107 -5.269,11.767 0,7.067 3.54,11.994 10.617,14.779 -4.879,2.462 -7.319,6.157 -7.319,11.083 0,3.856 1.408,7.027 4.223,9.518 2.815,2.489 6.367,3.734 10.657,3.734 4.344,0 7.923,-1.246 10.738,-3.739 2.815,-2.493 4.223,-5.618 4.223,-9.37 0,-5.041 -2.359,-8.796 -7.078,-11.262" /></g></g></g></g></svg>