<?xml version="1.0" encoding="utf-8"?>
<!DOCTYPE svg PUBLIC "-//W3C//DTD SVG 1.0//EN" "http://www.w3.org/TR/2001/REC-SVG-20010904/DTD/svg10.dtd">
<svg version="1.0" xmlns="http://www.w3.org/2000/svg" width="205px" height="206px" viewBox="0 0 205 206" preserveAspectRatio="xMidYMid meet">
 <g fill="#ffffff">
  <path d="M15 94.3 c0 -7.1 3.4 -22 6.7 -29.9 13.4 -31.9 43.1 -52.8 78.2 -55 37 -2.4 73.4 21.5 87.3 57.3 3.4 8.6 5.8 20.2 5.8 27.4 l0 4.9 -11.8 0 -11.8 0 -1.6 -9.7 c-4.1 -24 -21.8 -44.1 -45.3 -51.6 -9.1 -2.9 -26.9 -3 -36 -0.3 -14.3 4.3 -26.8 13.3 -35.6 25.9 -5.7 8.1 -8.5 15 -10.8 26.7 l-1.7 8.5 -11.7 0.3 -11.7 0.3 0 -4.8z"/>
 </g>
 <g fill="#ffffff">
  <path d="M89 194.5 c-8.8 -2 -14.4 -4.2 -16.5 -6.5 -1 -1.1 -4 -2.7 -6.7 -3.6 -3.9 -1.3 -5.2 -2.3 -6 -4.5 -1 -2.9 -2.4 -3.6 -8.3 -4.1 -2.6 -0.3 -3 -0.7 -3.3 -3.5 -0.3 -3.3 -0.7 -3.6 -6.7 -4.5 -1.6 -0.3 -1.9 -1 -1.8 -3.5 0.3 -3 0 -3.3 -3.7 -4.4 -5.7 -1.7 -6.8 -3.3 -4.7 -6.9 1.9 -3.2 1.9 -3.2 -3.8 -5 -7.3 -2.3 -9.6 -6.1 -5 -8.2 3.6 -1.6 3.1 -3.1 -2 -5.6 -2.6 -1.3 -5.1 -3.3 -5.7 -4.8 -1.1 -2.3 -1 -2.9 1.1 -4.5 1.3 -1.1 3 -1.9 3.8 -1.9 3 0 0.6 -3.6 -4.2 -6.2 -3.1 -1.7 -5 -3.4 -5 -4.5 0 -3.1 4.4 -4.3 16.1 -4.3 l11.1 0 -0.4 2.4 c-0.4 1.9 0.3 2.8 4 4.9 5.2 3.1 6 4.6 4.6 8.7 -1.5 4 -0.7 5.6 3.6 7.4 4 1.7 3.9 1.5 2.1 5.2 -1.8 3.3 -1.5 4 3.2 6.2 3.7 1.8 3.9 2.2 2.7 5.4 -0.5 1.3 0 2 2.2 2.9 5 2 5.7 2.6 6.3 5 0.4 1.7 1.7 2.7 4.5 3.5 3.8 1 4.8 2 5.9 5.7 0.7 2.3 4 3.5 15.5 5.4 8.2 1.4 11.2 1.4 21.1 0.4 14.4 -1.5 16 -1.9 16 -4.2 0 -1 0.8 -2.3 1.9 -2.8 1 -0.6 3.7 -2.6 6 -4.6 2.4 -1.9 5.1 -3.5 6 -3.5 0.9 0 2.5 -0.6 3.5 -1.3 1.4 -1 1.5 -1.8 0.7 -4 -0.9 -2.2 -0.7 -2.8 0.9 -3.7 1 -0.5 3 -1 4.4 -1 2.9 0 3.4 -1.8 1.4 -4.9 -1.5 -2.5 0.2 -4.7 4.2 -5.6 4.4 -1 5.4 -2.8 3.6 -6.4 -0.9 -1.6 -1.6 -3.6 -1.6 -4.4 0 -1.7 2.8 -4.3 7.2 -6.6 3.4 -1.9 4.8 -5.5 2.9 -7.4 -2.3 -2.3 -0.7 -2.7 10.7 -2.7 11.7 0 11.9 0 14.5 2.8 4.1 4.3 3.6 6.7 -2.2 9.7 -2.7 1.3 -5.2 2.8 -5.5 3.3 -0.3 0.5 0.4 2.1 1.5 3.8 1 1.6 1.9 3.6 1.9 4.5 0 2 -3.1 4.9 -5.2 4.9 -0.9 0 -2.6 0.9 -3.9 2 l-2.4 1.9 3 2.5 c3.9 3.2 2.9 5.1 -4.9 8.9 -5.8 2.8 -5.8 2.8 -4.2 5.2 2.4 3.6 2.1 4.3 -3.4 6.2 -4.7 1.7 -5 2 -4.8 4.7 0.3 2.6 -0.1 3.1 -2.8 3.6 -4.4 1 -5.4 1.8 -5.4 4.4 0 3 -1.9 4.5 -6.5 5.3 -2.6 0.4 -4 1.3 -5.1 3.4 -1.1 2.3 -2.1 2.9 -4.7 2.9 -1.8 0 -4.9 1.1 -7 2.5 -4.7 3.3 -10.3 4.3 -25.7 5 -9 0.3 -14.3 0.1 -19 -1z"/>
 </g>
</svg>